<svg width="25" height="23" viewBox="0 0 25 23" fill="none" xmlns="http://www.w3.org/2000/svg">
<path d="M12.2326 7.78721V12.2282M12.2326 16.6691H12.2437M23.0352 17.7794L14.1533 2.23602C13.9596 1.89429 13.6788 1.61005 13.3394 1.4123C13 1.21454 12.6143 1.11035 12.2215 1.11035C11.8287 1.11035 11.4429 1.21454 11.1036 1.4123C10.7642 1.61005 10.4833 1.89429 10.2897 2.23602L1.40777 17.7794C1.21201 18.1184 1.10937 18.5031 1.11023 18.8946C1.1111 19.2861 1.21545 19.6704 1.41271 20.0085C1.60996 20.3467 1.89311 20.6267 2.23345 20.8201C2.57379 21.0136 2.95923 21.1136 3.35069 21.1101H21.1145C21.5041 21.1097 21.8867 21.0068 22.224 20.8117C22.5612 20.6167 22.8412 20.3363 23.0358 19.9989C23.2304 19.6614 23.3328 19.2786 23.3327 18.889C23.3326 18.4994 23.23 18.1168 23.0352 17.7794Z" stroke="#FF5154" stroke-width="2.22048" stroke-linecap="round" stroke-linejoin="round"/>
</svg>
